<svg height="413" version="1.1" width="114.34375" xmlns="http://www.w3.org/2000/svg" xmlns:xlink="http://www.w3.org/1999/xlink" style="overflow: hidden; position: relative;" viewBox="0 0 114.34375 413" preserveAspectRatio="xMidYMid meet"><desc style="-webkit-tap-highlight-color: rgba(0, 0, 0, 0);">Created with Raphaël 2.1.4</desc><defs style="-webkit-tap-highlight-color: rgba(0, 0, 0, 0);"><path stroke-linecap="round" d="M5,0 0,2.5 5,5z" id="raphael-marker-block" style="-webkit-tap-highlight-color: rgba(0, 0, 0, 0);"></path><marker id="raphael-marker-endblock33-obj10" markerHeight="3" markerWidth="3" orient="auto" refX="1.5" refY="1.5" style="-webkit-tap-highlight-color: rgba(0, 0, 0, 0);"><use xlink:href="#raphael-marker-block" transform="rotate(180 1.5 1.5) scale(0.6,0.6)" stroke-width="1.6667" fill="black" stroke="none" style="-webkit-tap-highlight-color: rgba(0, 0, 0, 0);"></use></marker><marker id="raphael-marker-endblock33-obj11" markerHeight="3" markerWidth="3" orient="auto" refX="1.5" refY="1.5" style="-webkit-tap-highlight-color: rgba(0, 0, 0, 0);"><use xlink:href="#raphael-marker-block" transform="rotate(180 1.5 1.5) scale(0.6,0.6)" stroke-width="1.6667" fill="black" stroke="none" style="-webkit-tap-highlight-color: rgba(0, 0, 0, 0);"></use></marker><marker id="raphael-marker-endblock33-obj12" markerHeight="3" markerWidth="3" orient="auto" refX="1.5" refY="1.5" style="-webkit-tap-highlight-color: rgba(0, 0, 0, 0);"><use xlink:href="#raphael-marker-block" transform="rotate(180 1.5 1.5) scale(0.6,0.6)" stroke-width="1.6667" fill="black" stroke="none" style="-webkit-tap-highlight-color: rgba(0, 0, 0, 0);"></use></marker><marker id="raphael-marker-endblock33-obj13" markerHeight="3" markerWidth="3" orient="auto" refX="1.5" refY="1.5" style="-webkit-tap-highlight-color: rgba(0, 0, 0, 0);"><use xlink:href="#raphael-marker-block" transform="rotate(180 1.5 1.5) scale(0.6,0.6)" stroke-width="1.6667" fill="black" stroke="none" style="-webkit-tap-highlight-color: rgba(0, 0, 0, 0);"></use></marker></defs><rect x="0" y="0" width="50.46875" height="36" rx="20" ry="20" fill="#ffffff" stroke="#000000" style="-webkit-tap-highlight-color: rgba(0, 0, 0, 0);" stroke-width="3" class="flowchart" id="start" transform="matrix(1,0,0,1,33.4375,6)"></rect><text x="10" y="18" text-anchor="start" font-family="&quot;Arial&quot;" font-size="14px" stroke="none" fill="#000000" style="-webkit-tap-highlight-color: rgba(0, 0, 0, 0); text-anchor: start; font-family: Arial; font-size: 14px;" id="startt" class="flowchartt" transform="matrix(1,0,0,1,33.4375,6)" stroke-width="1"><tspan dy="4.8125" style="-webkit-tap-highlight-color: rgba(0, 0, 0, 0);">Start</tspan></text><path fill="#ffffff" stroke="#000000" d="M10,18L0,36L85.34375,36L105.34375,0L20,0L10,18" stroke-width="3" id="input" class="flowchart" style="-webkit-tap-highlight-color: rgba(0, 0, 0, 0);" transform="matrix(1,0,0,1,6,98)"></path><text x="30" y="18" text-anchor="start" font-family="&quot;Arial&quot;" font-size="14px" stroke="none" fill="#000000" style="-webkit-tap-highlight-color: rgba(0, 0, 0, 0); text-anchor: start; font-family: Arial; font-size: 14px;" id="inputt" class="flowchartt" transform="matrix(1,0,0,1,6,98)" stroke-width="1"><tspan dy="4.8125" style="-webkit-tap-highlight-color: rgba(0, 0, 0, 0);">Enter x</tspan></text><rect x="0" y="0" width="65.3125" height="36" rx="0" ry="0" fill="#ffffff" stroke="#000000" style="-webkit-tap-highlight-color: rgba(0, 0, 0, 0);" stroke-width="3" class="flowchart" id="square" transform="matrix(1,0,0,1,26.0156,190)"></rect><text x="10" y="18" text-anchor="start" font-family="&quot;Arial&quot;" font-size="14px" stroke="none" fill="#000000" style="-webkit-tap-highlight-color: rgba(0, 0, 0, 0); text-anchor: start; font-family: Arial; font-size: 14px;" id="squaret" class="flowchartt" transform="matrix(1,0,0,1,26.0156,190)" stroke-width="1"><tspan dy="4.8125" style="-webkit-tap-highlight-color: rgba(0, 0, 0, 0);">x = x^2</tspan></text><path fill="#ffffff" stroke="#000000" d="M10,18L0,36L80.671875,36L100.671875,0L20,0L10,18" stroke-width="3" id="output" class="flowchart" style="-webkit-tap-highlight-color: rgba(0, 0, 0, 0);" transform="matrix(1,0,0,1,8.3359,282)"></path><text x="30" y="18" text-anchor="start" font-family="&quot;Arial&quot;" font-size="14px" stroke="none" fill="#000000" style="-webkit-tap-highlight-color: rgba(0, 0, 0, 0); text-anchor: start; font-family: Arial; font-size: 14px;" id="outputt" class="flowchartt" transform="matrix(1,0,0,1,8.3359,282)" stroke-width="1"><tspan dy="4.8125" style="-webkit-tap-highlight-color: rgba(0, 0, 0, 0);">Print x</tspan><tspan dy="16.8" x="30" style="-webkit-tap-highlight-color: rgba(0, 0, 0, 0);"></tspan></text><rect x="0" y="0" width="44.90625" height="36" rx="20" ry="20" fill="#ffffff" stroke="#000000" style="-webkit-tap-highlight-color: rgba(0, 0, 0, 0);" stroke-width="3" class="flowchart" id="end" transform="matrix(1,0,0,1,36.2188,374)"></rect><text x="10" y="18" text-anchor="start" font-family="&quot;Arial&quot;" font-size="14px" stroke="none" fill="#000000" style="-webkit-tap-highlight-color: rgba(0, 0, 0, 0); text-anchor: start; font-family: Arial; font-size: 14px;" id="endt" class="flowchartt" transform="matrix(1,0,0,1,36.2188,374)" stroke-width="1"><tspan dy="4.8125" style="-webkit-tap-highlight-color: rgba(0, 0, 0, 0);">End</tspan></text><path fill="none" stroke="#000000" d="M58.671875,42C58.671875,42,58.671875,80.20077085494995,58.671875,93.50016031763516" stroke-width="3" marker-end="url(#raphael-marker-endblock33-obj10)" style="-webkit-tap-highlight-color: rgba(0, 0, 0, 0);"></path><path fill="none" stroke="#000000" d="M58.671875,134C58.671875,134,58.671875,172.20077085494995,58.671875,185.50016031763516" stroke-width="3" marker-end="url(#raphael-marker-endblock33-obj11)" style="-webkit-tap-highlight-color: rgba(0, 0, 0, 0);"></path><path fill="none" stroke="#000000" d="M58.671875,226C58.671875,226,58.671875,264.20077085494995,58.671875,277.50016031763516" stroke-width="3" marker-end="url(#raphael-marker-endblock33-obj12)" style="-webkit-tap-highlight-color: rgba(0, 0, 0, 0);"></path><path fill="none" stroke="#000000" d="M58.671875,318C58.671875,318,58.671875,356.20077085494995,58.671875,369.50016031763516" stroke-width="3" marker-end="url(#raphael-marker-endblock33-obj13)" style="-webkit-tap-highlight-color: rgba(0, 0, 0, 0);"></path></svg>